<svg width="32" height="42" viewBox="0 0 32 42" fill="none" xmlns="http://www.w3.org/2000/svg">
<g id="Frame 236">
<path id="Polygon 1" d="M16 0L23 10C18.6624 7.5214 13.3376 7.5214 9 10L16 0Z" fill="#6AA3EE"/>
<g id="Icon / Actions / Logged in">
<circle id="Ellipse 47" cx="15.9999" cy="25.9987" r="14.6667" fill="#6AA3EE"/>
<path id="Mask" d="M16 26C13.7909 26 12 24.2091 12 22C12 19.7909 13.7909 18 16 18C18.2091 18 20 19.7909 20 22C20 24.2091 18.2091 26 16 26Z" fill="url(#paint0_linear_3872_8825)"/>
<g id="Union" filter="url(#filter0_b_3872_8825)">
<path fill-rule="evenodd" clip-rule="evenodd" d="M8.15826 35.0848C8.46756 33.5529 9.2217 32.1326 10.3432 31.0111C11.8435 29.5108 13.8784 28.668 16.0001 28.668C18.1218 28.668 20.1566 29.5108 21.6569 31.0111C22.7785 32.1326 23.5326 33.5529 23.8419 35.0848C26.3885 32.8844 28.0001 29.631 28.0001 26.0013C28.0001 19.3739 22.6275 14.0013 16.0001 14.0013C9.37266 14.0013 4.00008 19.3739 4.00008 26.0013C4.00008 29.631 5.61163 32.8844 8.15826 35.0848ZM29.3334 26.0013C29.3334 33.3651 23.3639 39.3346 16.0001 39.3346C8.63628 39.3346 2.66675 33.3651 2.66675 26.0013C2.66675 18.6375 8.63628 12.668 16.0001 12.668C23.3639 12.668 29.3334 18.6375 29.3334 26.0013Z" fill="#012A61"/>
</g>
</g>
</g>
<defs>
<filter id="filter0_b_3872_8825" x="-9.33325" y="0.667969" width="50.6667" height="50.668" filterUnits="userSpaceOnUse" color-interpolation-filters="sRGB">
<feFlood flood-opacity="0" result="BackgroundImageFix"/>
<feGaussianBlur in="BackgroundImageFix" stdDeviation="6"/>
<feComposite in2="SourceAlpha" operator="in" result="effect1_backgroundBlur_3872_8825"/>
<feBlend mode="normal" in="SourceGraphic" in2="effect1_backgroundBlur_3872_8825" result="shape"/>
</filter>
<linearGradient id="paint0_linear_3872_8825" x1="16" y1="18" x2="16" y2="26" gradientUnits="userSpaceOnUse">
<stop stop-color="#2FCAD4"/>
<stop offset="1" stop-color="#C5DEFF"/>
</linearGradient>
</defs>
</svg>
